<svg version="1.1" viewBox="0.0 0.0 1800.0 1800.0" fill="none" stroke="none" stroke-linecap="square" stroke-miterlimit="10" xmlns:xlink="http://www.w3.org/1999/xlink" xmlns="http://www.w3.org/2000/svg"><clipPath id="g36d1140bd21_0_0.0"><path d="m0 0l1800.0 0l0 1800.0l-1800.0 0l0 -1800.0z" clip-rule="nonzero"/></clipPath><g clip-path="url(#g36d1140bd21_0_0.0)"><path fill="#000000" fill-opacity="0.0" d="m0 0l1800.0 0l0 1800.0l-1800.0 0z" fill-rule="evenodd"/><path fill="#ffffff" d="m0 111.294l0 0c0 -61.465977 49.828022 -111.294 111.294 -111.294l1577.4121 0c29.516968 0 57.825073 11.725584 78.696655 32.59726c20.871704 20.871674 32.59729 49.179733 32.59729 78.69674l0 1577.4121c0 61.465942 -49.828003 111.293945 -111.293945 111.293945l-1577.4121 0c-61.465977 0 -111.294 -49.828003 -111.294 -111.293945z" fill-rule="evenodd"/><path fill="#a0221a" d="m75.59055 177.53702l0 0c0 -56.303474 45.64299 -101.946465 101.946465 -101.946465l1444.926 0c27.037842 0 52.968384 10.740753 72.087036 29.859428c19.118652 19.118675 29.859375 45.049164 29.859375 72.087036l0 1444.926c0 56.303467 -45.642944 101.94641 -101.94641 101.94641l-1444.926 0c-56.303474 0 -101.946465 -45.642944 -101.946465 -101.94641z" fill-rule="evenodd"/><path stroke="#000000" stroke-width="1.0" stroke-linejoin="round" stroke-linecap="butt" d="m75.59055 177.53702l0 0c0 -56.303474 45.64299 -101.946465 101.946465 -101.946465l1444.926 0c27.037842 0 52.968384 10.740753 72.087036 29.859428c19.118652 19.118675 29.859375 45.049164 29.859375 72.087036l0 1444.926c0 56.303467 -45.642944 101.94641 -101.94641 101.94641l-1444.926 0c-56.303474 0 -101.946465 -45.642944 -101.946465 -101.94641z" fill-rule="evenodd"/><path fill="#ffffff" d="m256.2046 1466.4736l0 0c0 -3.6628418 -2.9693604 -6.632202 -6.632248 -6.632202l-62.32605 0c-1.7589874 0 -3.4459229 0.69873047 -4.6897125 1.9425049c-1.2437897 1.2437744 -1.9425354 2.9307861 -1.9425354 4.6896973l0 59.61743c0 3.6628418 2.9693604 6.632202 6.632248 6.632202l62.32605 0c3.6628876 0 6.632248 -2.9693604 6.632248 -6.632202z" fill-rule="evenodd"/><path stroke="#b9d2c3" stroke-width="1.0" stroke-linejoin="round" stroke-linecap="butt" d="m256.2046 1466.4736l0 0c0 -3.6628418 -2.9693604 -6.632202 -6.632248 -6.632202l-62.32605 0c-1.7589874 0 -3.4459229 0.69873047 -4.6897125 1.9425049c-1.2437897 1.2437744 -1.9425354 2.9307861 -1.9425354 4.6896973l0 59.61743c0 3.6628418 2.9693604 6.632202 6.632248 6.632202l62.32605 0c3.6628876 0 6.632248 -2.9693604 6.632248 -6.632202z" fill-rule="evenodd"/><path fill="#ffffff" d="m1526.6351 1374.6194l0 0c0 87.31897 -70.78601 158.10498 -158.10498 158.10498l-940.45135 0c-41.932068 0 -82.1467 -16.657349 -111.79715 -46.30786c-29.650452 -29.65039 -46.30789 -69.86511 -46.30789 -111.79712l0 -329.45923c0 -87.31903 70.78604 -158.10504 158.10504 -158.10504l940.45135 0l0 0c87.31897 0 158.10498 70.78601 158.10498 158.10504z" fill-rule="evenodd"/><path stroke="#ffffff" stroke-width="1.0" stroke-linejoin="round" stroke-linecap="butt" d="m1526.6351 1374.6194l0 0c0 87.31897 -70.78601 158.10498 -158.10498 158.10498l-940.45135 0c-41.932068 0 -82.1467 -16.657349 -111.79715 -46.30786c-29.650452 -29.65039 -46.30789 -69.86511 -46.30789 -111.79712l0 -329.45923c0 -87.31903 70.78604 -158.10504 158.10504 -158.10504l940.45135 0l0 0c87.31897 0 158.10498 70.78601 158.10498 158.10504z" fill-rule="evenodd"/><path fill="#ffffff" d="m682.4304 847.5407l220.89526 -162.83466l210.85278 162.83466z" fill-rule="evenodd"/><path stroke="#b9d2c3" stroke-width="1.0" stroke-linejoin="round" stroke-linecap="butt" d="m682.4304 847.5407l220.89526 -162.83466l210.85278 162.83466z" fill-rule="evenodd"/><path fill="#000000" fill-opacity="0.0" d="m180.61417 197.85826l1438.7717 0l0 364.5669l-1438.7717 0z" fill-rule="evenodd"/><path fill="#ffffff" d="m217.09854 286.56586l32.328125 0l0 135.625q0 8.6875 2.890625 11.703125q2.90625 3.015625 7.96875 3.015625q3.859375 0 7.96875 -0.953125q4.109375 -0.96875 7.234375 -2.421875l4.34375 24.625q-6.515625 3.125 -15.203125 4.8125q-8.6875 1.703125 -15.6875 1.703125q-15.203125 0 -23.53125 -8.078125q-8.3125 -8.09375 -8.3125 -23.0625l0 -146.96875zm68.04794 138.76562q0 -12.3125 6.875 -21.59375q6.875 -9.296875 19.1875 -14.359375q12.3125 -5.078125 28.234375 -5.078125q7.96875 0 16.171875 1.21875q8.203125 1.203125 14.234375 3.859375l0 -6.765625q0 -12.0625 -7.125 -18.578125q-7.109375 -6.515625 -21.109375 -6.515625q-10.375 0 -19.796875 3.625q-9.40625 3.609375 -19.78125 10.609375l-10.375 -21.234375q12.546875 -8.203125 25.703125 -12.296875q13.15625 -4.109375 27.625 -4.109375q27.03125 0 42.109375 13.515625q15.09375 13.515625 15.09375 38.609375l0 40.296875q0 5.078125 1.8125 7.25q1.8125 2.171875 5.90625 2.640625l0 26.3125q-4.34375 0.71875 -7.84375 1.203125q-3.5 0.484375 -5.90625 0.484375q-9.65625 0 -14.609375 -4.34375q-4.9375 -4.34375 -6.140625 -10.609375l-0.734375 -6.515625q-8.203125 10.609375 -20.515625 16.40625q-12.296875 5.78125 -25.09375 5.78125q-12.546875 0 -22.5625 -5.1875q-10.015625 -5.1875 -15.6875 -14.234375q-5.671875 -9.046875 -5.671875 -20.390625zm78.671875 6.515625q2.65625 -2.890625 4.34375 -5.78125q1.6875 -2.90625 1.6875 -5.3125l0 -12.796875q-5.78125 -2.40625 -12.546875 -3.734375q-6.75 -1.328125 -12.78125 -1.328125q-12.5625 0 -20.640625 5.4375q-8.078125 5.421875 -8.078125 14.34375q0 4.828125 2.640625 9.171875q2.65625 4.34375 7.71875 7.0q5.078125 2.65625 12.078125 2.65625q7.234375 0 14.234375 -2.765625q7.0 -2.78125 11.34375 -6.890625zm154.92865 30.890625l-36.921875 -54.546875l-17.125 16.90625l0 37.640625l-32.34375 0l0 -176.17188l32.34375 0l0 106.671875l50.921875 -56.71875l34.265625 0l-47.0625 53.578125l50.4375 72.640625l-34.515625 0zm123.567444 -98.46875q-14.71875 0 -26.3125 5.671875q-11.578125 5.671875 -16.640625 16.296875l0 76.5l-32.34375 0l0 -126.453125l29.6875 0l0 27.03125q6.75 -13.03125 17.125 -20.515625q10.390625 -7.484375 21.96875 -8.203125q2.65625 0 4.09375 0q1.453125 0 2.421875 0.234375l0 29.4375zm16.894043 51.171875l0 -79.15625l32.34375 0l0 72.15625q0 14.484375 5.296875 21.84375q5.3125 7.359375 15.6875 7.359375q6.28125 0 12.4375 -2.53125q6.15625 -2.546875 11.34375 -7.609375q5.1875 -5.0625 8.796875 -12.796875l0 -78.421875l32.34375 0l0 90.25q0 5.078125 1.8125 7.25q1.8125 2.171875 5.90625 2.640625l0 26.3125q-4.828125 0.71875 -8.09375 1.078125q-3.25 0.375 -5.90625 0.375q-8.6875 0 -14.125 -3.984375q-5.421875 -3.984375 -6.375 -10.984375l-0.734375 -10.140625q-8.4375 12.796875 -21.71875 19.4375q-13.265625 6.625 -29.203125 6.625q-19.546875 0 -29.6875 -12.65625q-10.125 -12.671875 -10.125 -37.046875zm141.9065 27.515625l69.734375 -83.984375l-66.84375 0l0 -22.6875l101.59375 0l0 19.78125l-69.25 83.984375l70.453125 0l0 22.6875l-105.6875 0l0 -19.78125zm118.97479 0l69.734375 -83.984375l-66.84375 0l0 -22.6875l101.59369 0l0 19.78125l-69.24994 83.984375l70.453064 0l0 22.6875l-105.68744 0l0 -19.78125zm126.69354 19.78125l0 -34.75l26.546875 0l0 34.75l-26.546875 0zm111.25354 2.40625q-15.453125 0 -27.765625 -5.1875q-12.296875 -5.1875 -20.984375 -14.46875q-8.6875 -9.296875 -13.40625 -21.125q-4.703125 -11.828125 -4.703125 -24.859375q0 -17.859375 8.078125 -32.6875q8.09375 -14.84375 23.046875 -23.765625q14.96875 -8.9375 35.484375 -8.9375q20.515625 0 35.234375 8.9375q14.71875 8.921875 21.96875 23.390625l-31.625 9.65625q-4.09375 -7.0 -10.859375 -10.734375q-6.75 -3.734375 -14.953125 -3.734375q-9.171875 0 -16.78125 4.703125q-7.59375 4.703125 -11.9375 13.265625q-4.34375 8.5625 -4.34375 19.90625q0 11.109375 4.453125 19.671875q4.46875 8.5625 11.953125 13.515625q7.484375 4.953125 16.65625 4.953125q5.796875 0 10.984375 -1.921875q5.1875 -1.9375 9.28125 -5.3125q4.109375 -3.390625 6.03125 -7.734375l31.625 9.65625q-4.34375 9.40625 -12.671875 16.890625q-8.328125 7.484375 -19.546875 11.703125q-11.21875 4.21875 -25.21875 4.21875zm134.41809 0q-15.453125 0 -27.765625 -5.1875q-12.296875 -5.1875 -20.875 -14.359375q-8.5625 -9.171875 -13.15625 -20.984375q-4.578125 -11.828125 -4.578125 -24.859375q0 -13.28125 4.578125 -25.09375q4.59375 -11.828125 13.15625 -21.0q8.578125 -9.171875 20.875 -14.359375q12.3125 -5.1875 27.765625 -5.1875q15.4375 0 27.625 5.1875q12.1875 5.1875 20.875 14.359375q8.6875 9.171875 13.15625 21.0q4.46875 11.8125 4.46875 25.09375q0 13.03125 -4.46875 24.859375q-4.46875 11.8125 -13.03125 20.984375q-8.5625 9.171875 -20.875 14.359375q-12.3125 5.1875 -27.75 5.1875zm-33.0625 -65.390625q0 11.09375 4.34375 19.671875q4.34375 8.5625 11.8125 13.390625q7.484375 4.828125 16.90625 4.828125q9.171875 0 16.640625 -4.953125q7.484375 -4.953125 11.953125 -13.515625q4.46875 -8.5625 4.46875 -19.671875q0 -10.859375 -4.46875 -19.546875q-4.46875 -8.6875 -11.953125 -13.5q-7.46875 -4.828125 -16.640625 -4.828125q-9.421875 0 -16.90625 4.953125q-7.46875 4.9375 -11.8125 13.5q-4.34375 8.5625 -4.34375 19.671875zm317.33862 62.984375l-32.328125 0l0 -70.953125q0 -14.953125 -5.1875 -22.078125q-5.1875 -7.125 -14.359375 -7.125q-9.421875 0 -17.984375 7.359375q-8.5625 7.359375 -12.1875 19.1875l0 73.609375l-32.34375 0l0 -70.953125q0 -15.203125 -5.1875 -22.203125q-5.1875 -7.0 -14.359375 -7.0q-9.40625 0 -17.984375 7.25q-8.5625 7.234375 -12.171875 19.0625l0 73.84375l-32.34375 0l0 -126.453125l29.203125 0l0 23.40625q7.234375 -12.3125 19.296875 -18.9375q12.078125 -6.640625 27.765625 -6.640625q15.6875 0 24.484375 7.71875q8.8125 7.71875 11.234375 19.0625q7.71875 -13.03125 19.65625 -19.90625q11.953125 -6.875 26.921875 -6.875q11.8125 0 19.171875 4.21875q7.359375 4.21875 11.46875 11.34375q4.109375 7.125 5.671875 16.0625q1.5625 8.921875 1.5625 18.078125l0 78.921875z" fill-rule="nonzero"/></g></svg>